<?xml version="1.0" encoding="utf-8"?>
<!-- Generator: Adobe Illustrator 16.0.0, SVG Export Plug-In . SVG Version: 6.00 Build 0)  -->
<!DOCTYPE svg PUBLIC "-//W3C//DTD SVG 1.1//EN" "http://www.w3.org/Graphics/SVG/1.1/DTD/svg11.dtd">
<svg version="1.1" id="Layer_1" xmlns="http://www.w3.org/2000/svg" xmlns:xlink="http://www.w3.org/1999/xlink" x="0px" y="0px"
	 width="500px" height="500px" viewBox="0 0 500 500" enable-background="new 0 0 500 500" xml:space="preserve">
<path fill-rule="evenodd" clip-rule="evenodd" d="M432.372,214.951c-16.419,19.082-33.929,37.221-50.907,55.825
	c-7.563,8.288-6.982,10.656,3.173,14.374c20.687,7.57,41.393,15.096,62.095,22.624c8.795,3.199,11.284,1.599,11.303-8.055
	c0.058-27.719-0.643-55.453,0.123-83.147c0.235-8.459,3.925-16.93,6.782-25.133c0.704-2.023,4.35-3.022,6.643-4.492
	c0.744,0.75,1.488,1.5,2.234,2.25c-10.713,14.257-10.55,30.551-10.303,47.046c0.321,21.412,0.122,42.838-0.217,64.25
	c-0.23,14.31-7.102,18.837-20.281,13.662c-20.211-7.937-40.374-16.006-60.491-24.18c-11.16-4.531-12.518-10.873-4.472-19.941
	c15.66-17.646,31.366-35.252,48.315-54.292"/>
<path fill-rule="evenodd" clip-rule="evenodd" d="M453.688,258.207c0,16.746,0,32.013,0,48.448
	c-23.827-9.177-46.829-18.034-70.991-27.337c5.396-6.697,9.938-12.616,14.834-18.222c1.278-1.462,3.652-2.741,5.54-2.765
	C419.672,258.119,436.275,258.207,453.688,258.207z"/>
<path fill-rule="evenodd" clip-rule="evenodd" d="M448.656,177.595c-0.864,0.114-1.726,0.229-2.589,0.343
	c-5.44,15.064-6.229,33.325-25.225,29.607c-23.834-4.663-47.522-10.105-71.53-13.841c-46.169-7.182-91.601-4.011-136.305,9.677
	c-22.014,6.74-42.847,16.16-64.127,24.821c-21.463,8.735-43.126,13.652-65.235,20.062c-25.512,7.395-71.503,30.989-53.313,65.194
	c0.896-0.36,1.792-0.72,2.688-1.077c0-36.59,18.129-47.491,51.284-58.461c35.958-11.897,70.471-22.361,105.577-37.095
	c0.235,0.546,0.469,1.093,0.704,1.64c-19.555,9.684-39.11,19.367-58.665,29.053c0.598,1.294,1.196,2.587,1.793,3.882
	c45.683-24.037,91.043-49.043,145.449-50.541c-4.051,19.918-0.763,37.16-23.538,38.635c-21.254,1.378-42.671,2.515-63.794,5.259
	c0.132,0.888,0.263,1.774,0.394,2.662c54.21-2.458,108.425-4.837,162.288-11.866c-0.062-1.032-0.12-2.064-0.184-3.096
	c-19.729,1.331-39.457,2.664-60.378,4.076c0.872-13.241,1.663-25.25,2.522-38.342c17.934,1.011,37.143,0.107,54.801,3.597
	c14.748,2.917,19.208,18.452,26.02,30.044c0.651-0.428,1.303-0.858,1.955-1.289c-4.09-7.611-8.177-15.223-12.267-22.833
	c0.489-0.757,0.98-1.516,1.472-2.272c12.462,3.779,24.925,7.556,39.178,11.878c-5.508,6.189-8.861,9.961-12.218,13.733
	c17.593-7.013,18.674-11.983,4.452-23.665c10.002,3.155,17.729,5.592,26.504,8.36l6.003-0.792
	C441.725,204.076,449.648,191.862,448.656,177.595z M288.723,233.761c-0.41,2.286-6.646,3.525-10.199,5.246
	c-0.782-0.773-1.567-1.547-2.353-2.321c2.168-11.626,4.035-23.324,6.785-34.81c0.493-2.051,4.65-3.226,7.115-4.804
	c0.791,0.554,1.579,1.106,2.369,1.66C291.352,210.435,290.798,222.234,288.723,233.761z"/>
</svg>
